<?xml version="1.0" encoding="utf-8"?>
<!-- Generator: Adobe Illustrator 16.0.0, SVG Export Plug-In . SVG Version: 6.00 Build 0)  -->
<!DOCTYPE svg PUBLIC "-//W3C//DTD SVG 1.1//EN" "http://www.w3.org/Graphics/SVG/1.1/DTD/svg11.dtd">
<svg version="1.1" id="Layer_1" xmlns="http://www.w3.org/2000/svg" xmlns:xlink="http://www.w3.org/1999/xlink" x="0px" y="0px"
	 width="35px" height="35px" viewBox="0 0 35 35" style="enable-background:new 0 0 35 35;" xml:space="preserve">
<style type="text/css">
<![CDATA[
	.st0{fill:#FFFFFF;}
]]>
</style>
<g>
	<g>
		<path class="st0" d="M25.146,3.046c-2.123-1.531-4.788-2.296-7.996-2.296c-2.441,0-4.5,0.54-6.173,1.615
			c-2.655,1.687-4.067,4.55-4.238,8.589h6.154c0-1.176,0.343-2.31,1.029-3.401c0.688-1.092,1.852-1.637,3.495-1.637
			c1.67,0,2.822,0.444,3.45,1.328c0.632,0.886,0.947,1.868,0.947,2.944c0,0.936-0.472,1.792-1.034,2.572
			c-0.314,0.453-0.724,0.871-1.232,1.254c0,0-3.337,2.14-4.802,3.861c-0.851,0.996-0.927,2.489-1,4.632
			c-0.006,0.152,0.053,0.467,0.586,0.467c0.534,0,4.311,0,4.786,0s0.571-0.354,0.58-0.507c0.032-0.78,0.122-1.179,0.262-1.631
			c0.271-0.851,1.001-1.592,1.824-2.23l1.692-1.17c1.528-1.19,2.748-2.167,3.286-2.933c0.92-1.261,1.568-2.813,1.568-4.655
			C28.329,6.845,27.265,4.577,25.146,3.046z M17.051,26.664c-2.121-0.064-3.87,1.402-3.938,3.703c-0.065,2.3,1.599,3.816,3.718,3.88
			c2.216,0.066,3.917-1.354,3.985-3.652C20.883,28.295,19.265,26.73,17.051,26.664z"/>
	</g>
</g>
</svg>
