<?xml version="1.0" encoding="utf-8"?>
<!-- Generator: Adobe Illustrator 16.0.0, SVG Export Plug-In . SVG Version: 6.00 Build 0)  -->
<!DOCTYPE svg PUBLIC "-//W3C//DTD SVG 1.1//EN" "http://www.w3.org/Graphics/SVG/1.1/DTD/svg11.dtd">
<svg version="1.1" id="Layer_1" xmlns="http://www.w3.org/2000/svg" xmlns:xlink="http://www.w3.org/1999/xlink" x="0px" y="0px"
	 width="51.4px" height="39.6px" viewBox="0 0 51.4 39.6" enable-background="new 0 0 51.4 39.6" xml:space="preserve">
<g>
	<g>
		<path fill="#7DCDCD" d="M44.475,11.431l-8.418,4.042l-6.371,18.139c-0.106,0.304-0.43,0.665-0.719,0.803L25.81,35.93
			c-0.289,0.138-0.5-0.009-0.465-0.329l1.648-15.775l-2.117,1.015c-3.771,1.809-12.27,4.002-13.772,2.782
			c-3.09-2.509-6.912-7.094-6.912-7.094s0.704-0.338,1.842-0.885l8.07,2.6L39.658,5.974c2.271-1.09,7.021-0.74,7.859,1.004
			C48.071,8.128,46.773,10.328,44.475,11.431z"/>
		<path fill="#7DCDCD" d="M13.691,8.633l6.938,4.461l6.819-3.273l-9.488-3.33c-0.303-0.107-0.788-0.08-1.078,0.057l-3.157,1.516
			C13.437,8.205,13.421,8.46,13.691,8.633z"/>
	</g>
</g>
</svg>
