<?xml version="1.0" encoding="utf-8"?>
<!-- Generator: Adobe Illustrator 16.0.0, SVG Export Plug-In . SVG Version: 6.00 Build 0)  -->
<!DOCTYPE svg PUBLIC "-//W3C//DTD SVG 1.1//EN" "http://www.w3.org/Graphics/SVG/1.1/DTD/svg11.dtd">
<svg version="1.1" id="Layer_1" xmlns="http://www.w3.org/2000/svg" xmlns:xlink="http://www.w3.org/1999/xlink" x="0px" y="0px"
	 width="51.4px" height="39.6px" viewBox="0 0 51.4 39.6" enable-background="new 0 0 51.4 39.6" xml:space="preserve">
<path fill="#7DCDCD" d="M43.805,32.844c-0.34-0.298-0.789-0.438-1.238-0.38c-1.668,0.207-4.301,0.45-6.934,0.332
	c-1.801-0.082-3.438-0.437-4.984-0.929l-5.532-15.836c5.274-1.699,9.692-2.383,12.165-2.652c0.516-0.055,0.969-0.363,1.211-0.816
	c0.246-0.457,0.25-1.004,0.008-1.465C35.13,4.61,27.704,1.192,20.539,2.93l-0.133-0.379c-0.137-0.395-0.426-0.715-0.797-0.895
	c-0.375-0.18-0.808-0.207-1.199-0.066l-0.027,0.008c-0.817,0.285-1.246,1.18-0.961,1.996l0.133,0.379
	c-6.676,3.09-10.36,10.352-8.993,17.508c0.102,0.516,0.45,0.945,0.926,1.148c0.481,0.207,1.031,0.16,1.469-0.125
	c1.976-1.285,5.637-3.375,11.172-5.434l4.653,13.32c-3.759-1.595-7.355-3.262-12.102-2.535c-3.036,0.461-5.43,2.852-6.332,3.879
	c-0.25,0.285-0.395,0.652-0.395,1.035v3.401c0,0.864,0.707,1.567,1.574,1.567h33.239c0.867,0,1.574-0.703,1.574-1.567V34.02
	C44.341,33.571,44.141,33.141,43.805,32.844L43.805,32.844z M43.805,32.844"/>
</svg>
