<?xml version="1.0" encoding="utf-8"?>
<!-- Generator: Adobe Illustrator 16.0.0, SVG Export Plug-In . SVG Version: 6.00 Build 0)  -->
<!DOCTYPE svg PUBLIC "-//W3C//DTD SVG 1.1//EN" "http://www.w3.org/Graphics/SVG/1.1/DTD/svg11.dtd">
<svg version="1.1" id="Layer_1" xmlns="http://www.w3.org/2000/svg" xmlns:xlink="http://www.w3.org/1999/xlink" x="0px" y="0px"
	 width="51.4px" height="39.6px" viewBox="0 0 51.4 39.6" enable-background="new 0 0 51.4 39.6" xml:space="preserve">
<g id="_x31_5">
	<g>
		<path fill="#7DCDCD" d="M16.771,9.374h0.523c0.795,0,1.44-0.645,1.44-1.44V3.961V2.476c0-0.795-0.645-1.44-1.44-1.44h-0.523
			c-0.795,0-1.44,0.645-1.44,1.44v1.485v3.973C15.331,8.729,15.975,9.374,16.771,9.374z"/>
		<path fill="#7DCDCD" d="M35.235,9.338h0.523c0.795,0,1.438-0.645,1.438-1.439V3.584V2.439C37.197,1.645,36.554,1,35.759,1h-0.523
			c-0.795,0-1.44,0.645-1.44,1.439v1.145v4.314C33.796,8.693,34.44,9.338,35.235,9.338z"/>
		<path fill="#7DCDCD" d="M42.063,3.961h-3.694v4.314c0,1.438-1.171,2.233-2.609,2.233h-0.523c-1.438,0-2.61-1.171-2.61-2.61V3.961
			H19.903v3.973c0,1.439-1.17,2.61-2.61,2.61h-0.523c-1.439,0-2.61-1.171-2.61-2.61V3.961h-3.986c-1.291,0-2.34,1.05-2.34,2.34
			v28.28c0,1.291,1.05,2.34,2.34,2.34h31.888c1.291,0,2.341-1.049,2.341-2.34V6.301C44.403,5.011,43.354,3.961,42.063,3.961z
			 M42.063,34.582H10.174V13.225h31.889l0.001,21.356C42.064,34.582,42.064,34.582,42.063,34.582z"/>
		<path fill="none" stroke="#7DCDCD" stroke-miterlimit="10" d="M27.327,20.389h4.202c0.166,0,0.301-0.135,0.301-0.301v-3.639
			c0-0.167-0.135-0.302-0.301-0.302h-4.202c-0.167,0-0.302,0.135-0.302,0.302v3.639C27.025,20.254,27.16,20.389,27.327,20.389z"/>
		<path fill="#7DCDCD" d="M34.186,20.389h4.201c0.167,0,0.302-0.135,0.302-0.301v-3.639c0-0.167-0.135-0.302-0.302-0.302h-4.201
			c-0.167,0-0.303,0.135-0.303,0.302v3.639C33.883,20.254,34.019,20.389,34.186,20.389z"/>
		<path fill="#7DCDCD" d="M13.611,26.345h4.202c0.167,0,0.301-0.135,0.301-0.301v-3.639c0-0.166-0.135-0.301-0.301-0.301h-4.202
			c-0.167,0-0.302,0.135-0.302,0.301v3.639C13.31,26.21,13.444,26.345,13.611,26.345z"/>
		<path fill="#7DCDCD" d="M20.469,26.345h4.202c0.167,0,0.302-0.135,0.302-0.301v-3.639c0-0.166-0.135-0.301-0.302-0.301h-4.202
			c-0.167,0-0.301,0.135-0.301,0.301v3.639C20.167,26.21,20.302,26.345,20.469,26.345z"/>
		<path fill="#7DCDCD" d="M27.327,26.345h4.202c0.166,0,0.301-0.135,0.301-0.301v-3.639c0-0.166-0.135-0.301-0.301-0.301h-4.202
			c-0.167,0-0.302,0.135-0.302,0.301v3.639C27.025,26.21,27.16,26.345,27.327,26.345z"/>
		<path fill="#7DCDCD" d="M34.186,26.345h4.201c0.167,0,0.303-0.135,0.303-0.301v-3.639c0-0.166-0.136-0.301-0.303-0.301h-4.201
			c-0.167,0-0.303,0.135-0.303,0.301v3.639C33.883,26.21,34.019,26.345,34.186,26.345z"/>
		<path fill="#7DCDCD" d="M17.813,28.06h-4.202c-0.167,0-0.302,0.137-0.302,0.303v3.639c0,0.166,0.135,0.303,0.302,0.303h4.202
			c0.167,0,0.301-0.137,0.301-0.303v-3.639C18.115,28.197,17.98,28.06,17.813,28.06z"/>
		<path fill="#7DCDCD" d="M24.671,28.06h-4.202c-0.167,0-0.302,0.137-0.302,0.303v3.639c0,0.166,0.135,0.303,0.302,0.303h4.202
			c0.167,0,0.301-0.137,0.301-0.303v-3.639C24.973,28.197,24.838,28.06,24.671,28.06z"/>
		<path fill="#7DCDCD" d="M31.529,28.06h-4.202c-0.167,0-0.302,0.137-0.302,0.303v3.639c0,0.166,0.135,0.303,0.302,0.303h4.202
			c0.166,0,0.301-0.137,0.301-0.303v-3.639C31.83,28.197,31.695,28.06,31.529,28.06z"/>
		<path fill="#7DCDCD" d="M38.387,28.06h-4.201c-0.167,0-0.303,0.137-0.303,0.303v3.639c0,0.166,0.136,0.303,0.303,0.303h4.201
			c0.167,0,0.303-0.137,0.303-0.303v-3.639C38.689,28.197,38.554,28.06,38.387,28.06z"/>
	</g>
</g>
</svg>
