<?xml version="1.0" encoding="utf-8"?>
<!-- Generator: Adobe Illustrator 16.0.0, SVG Export Plug-In . SVG Version: 6.00 Build 0)  -->
<!DOCTYPE svg PUBLIC "-//W3C//DTD SVG 1.1//EN" "http://www.w3.org/Graphics/SVG/1.1/DTD/svg11.dtd">
<svg version="1.1" id="Layer_1" xmlns="http://www.w3.org/2000/svg" xmlns:xlink="http://www.w3.org/1999/xlink" x="0px" y="0px"
	 width="51.4px" height="39.6px" viewBox="0 0 51.4 39.6" enable-background="new 0 0 51.4 39.6" xml:space="preserve">
<g id="_x31_5_1_">
	<g>
		<path fill="#7DCDCD" d="M16.771,9.758h0.523c0.795,0,1.44-0.645,1.44-1.44V4.345V2.86c0-0.795-0.645-1.44-1.44-1.44h-0.523
			c-0.795,0-1.44,0.645-1.44,1.44v1.485v3.973C15.331,9.113,15.975,9.758,16.771,9.758z"/>
		<path fill="#7DCDCD" d="M35.235,9.722h0.523c0.795,0,1.438-0.645,1.438-1.439V3.968V2.823c0-0.794-0.644-1.439-1.438-1.439h-0.523
			c-0.795,0-1.44,0.645-1.44,1.439v1.145v4.314C33.796,9.077,34.44,9.722,35.235,9.722z"/>
		<path fill="#7DCDCD" d="M42.063,4.345h-3.694V8.66c0,1.438-1.171,2.233-2.609,2.233h-0.523c-1.438,0-2.61-1.171-2.61-2.61V4.345
			H19.903v3.973c0,1.439-1.17,2.61-2.61,2.61h-0.523c-1.439,0-2.61-1.171-2.61-2.61V4.345h-3.986c-1.291,0-2.34,1.05-2.34,2.34
			v28.281c0,1.291,1.05,2.34,2.34,2.34h31.888c1.291,0,2.341-1.049,2.341-2.34V6.686C44.403,5.396,43.354,4.345,42.063,4.345z
			 M42.063,34.966H10.174V13.609h31.889l0.001,21.357C42.064,34.966,42.064,34.966,42.063,34.966z"/>
		<path fill="#7DCDCD" d="M27.327,20.773h4.202c0.166,0,0.301-0.135,0.301-0.301v-3.639c0-0.167-0.135-0.302-0.301-0.302h-4.202
			c-0.167,0-0.302,0.135-0.302,0.302v3.639C27.025,20.638,27.16,20.773,27.327,20.773z"/>
		<path fill="#7DCDCD" d="M34.186,20.773h4.201c0.167,0,0.302-0.135,0.302-0.301v-3.639c0-0.167-0.135-0.302-0.302-0.302h-4.201
			c-0.167,0-0.303,0.135-0.303,0.302v3.639C33.883,20.638,34.019,20.773,34.186,20.773z"/>
		<path fill="#7DCDCD" d="M13.611,26.73h4.202c0.167,0,0.301-0.135,0.301-0.301v-3.64c0-0.166-0.135-0.301-0.301-0.301h-4.202
			c-0.167,0-0.302,0.135-0.302,0.301v3.64C13.31,26.595,13.444,26.73,13.611,26.73z"/>
		<path fill="#7DCDCD" d="M20.469,26.73h4.202c0.167,0,0.302-0.135,0.302-0.301v-3.64c0-0.166-0.135-0.301-0.302-0.301h-4.202
			c-0.167,0-0.301,0.135-0.301,0.301v3.64C20.167,26.595,20.302,26.73,20.469,26.73z"/>
		<path fill="#7DCDCD" d="M27.327,26.73h4.202c0.166,0,0.301-0.135,0.301-0.301v-3.64c0-0.166-0.135-0.301-0.301-0.301h-4.202
			c-0.167,0-0.302,0.135-0.302,0.301v3.64C27.025,26.595,27.16,26.73,27.327,26.73z"/>
		<path fill="#7DCDCD" d="M34.186,26.73h4.201c0.167,0,0.303-0.135,0.303-0.301v-3.64c0-0.166-0.136-0.301-0.303-0.301h-4.201
			c-0.167,0-0.303,0.135-0.303,0.301v3.64C33.883,26.595,34.019,26.73,34.186,26.73z"/>
		<path fill="#7DCDCD" d="M17.813,28.445h-4.202c-0.167,0-0.302,0.137-0.302,0.303v3.639c0,0.166,0.135,0.302,0.302,0.302h4.202
			c0.167,0,0.301-0.136,0.301-0.302v-3.639C18.115,28.582,17.98,28.445,17.813,28.445z"/>
		<path fill="#7DCDCD" d="M24.671,28.445h-4.202c-0.167,0-0.302,0.137-0.302,0.303v3.639c0,0.166,0.135,0.302,0.302,0.302h4.202
			c0.167,0,0.301-0.136,0.301-0.302v-3.639C24.973,28.582,24.838,28.445,24.671,28.445z"/>
		<path fill="#7DCDCD" d="M31.529,28.445h-4.202c-0.167,0-0.302,0.137-0.302,0.303v3.639c0,0.166,0.135,0.302,0.302,0.302h4.202
			c0.166,0,0.301-0.136,0.301-0.302v-3.639C31.83,28.582,31.695,28.445,31.529,28.445z"/>
		<path fill="none" stroke="#7DCDCD" stroke-miterlimit="10" d="M38.387,28.445h-4.201c-0.167,0-0.303,0.137-0.303,0.303v3.639
			c0,0.166,0.136,0.302,0.303,0.302h4.201c0.167,0,0.303-0.136,0.303-0.302v-3.639C38.689,28.582,38.554,28.445,38.387,28.445z"/>
	</g>
</g>
</svg>
