<?xml version="1.0" encoding="utf-8"?>
<!-- Generator: Adobe Illustrator 16.0.0, SVG Export Plug-In . SVG Version: 6.00 Build 0)  -->
<!DOCTYPE svg PUBLIC "-//W3C//DTD SVG 1.1//EN" "http://www.w3.org/Graphics/SVG/1.1/DTD/svg11.dtd">
<svg version="1.1" id="Layer_1" xmlns="http://www.w3.org/2000/svg" xmlns:xlink="http://www.w3.org/1999/xlink" x="0px" y="0px"
	 width="22.728px" height="18.3px" viewBox="0 0 22.728 18.3" style="enable-background:new 0 0 22.728 18.3;" xml:space="preserve"
	>
<style type="text/css">
<![CDATA[
	.st0{fill:#7DCDCD;}
]]>
</style>
<path class="st0" d="M22.727,8.171L15.87,1.313c-0.418-0.417-1.097-0.417-1.515,0c-0.419,0.419-0.419,1.097,0,1.516l5.027,5.027
	H1.071C0.478,7.856,0,8.337,0,8.928C0,9.519,0.478,10,1.071,10h18.312l-5.027,5.027c-0.419,0.419-0.419,1.097,0,1.516
	c0.209,0.209,0.482,0.313,0.758,0.313c0.273,0,0.548-0.104,0.757-0.313l6.857-6.857C23.146,9.267,23.146,8.589,22.727,8.171
	L22.727,8.171z M22.727,8.171"/>
</svg>
