<?xml version="1.0" encoding="utf-8"?>
<!-- Generator: Adobe Illustrator 16.0.0, SVG Export Plug-In . SVG Version: 6.00 Build 0)  -->
<!DOCTYPE svg PUBLIC "-//W3C//DTD SVG 1.1//EN" "http://www.w3.org/Graphics/SVG/1.1/DTD/svg11.dtd">
<svg version="1.1" id="Layer_1" xmlns="http://www.w3.org/2000/svg" xmlns:xlink="http://www.w3.org/1999/xlink" x="0px" y="0px"
	 width="35px" height="35px" viewBox="0 0 35 35" style="enable-background:new 0 0 35 35;" xml:space="preserve">
<style type="text/css">
<![CDATA[
	.st0{fill:#7ECDCD;}
]]>
</style>
<g>
	<path class="st0" d="M5.844,24.665c-0.92-1.489-1.595-3.774-1.595-6.212c0-7.317,5.95-13.267,13.264-13.267
		c1.507,0,2.95,0.267,4.297,0.729l-1.608-1.952c-0.874-0.165-1.77-0.262-2.689-0.262c-8.132,0-14.748,6.617-14.748,14.752
		c0,2.716,0.75,5.256,1.804,6.967L5.844,24.665z"/>
	<path class="st0" d="M5.844,24.665"/>
	<path class="st0" d="M30.367,15.186c0.262,1.043,0.411,2.137,0.411,3.268c0,7.314-5.952,13.264-13.267,13.264
		c-3.105,0-5.958-1.074-8.216-2.872l-1.315,0.838c2.57,2.19,5.896,3.52,9.531,3.52c8.131,0,14.749-6.615,14.749-14.749
		c0-0.54-0.036-1.065-0.095-1.586L30.367,15.186z"/>
	<path class="st0" d="M30.367,15.186"/>
	<path class="st0" d="M34.352,14.417c-0.185-0.877-3.812-5.993-3.812-5.993s3.084-2.979,3.286-3.334
		c0.204-0.353,0.982-1.146-0.01-1.961c-0.998-0.818-1.71-0.291-2.061,0.026c-0.358,0.319-3.006,2.688-3.006,2.688
		s-5.375-3.913-6.26-3.981c-0.888-0.069-1.48,0.724-1.48,0.724l5.466,5.512l-2.677,3.16l-2.396-0.699l-1.322,0.814
		c0,0,2.627,1.146,3.146,1.804c0.521,0.66,1.207,2.853,1.207,2.853l1.263-0.662l-0.587-2.887l3.038-2.419l5.216,5.717
		C33.363,15.775,34.537,15.294,34.352,14.417L34.352,14.417z"/>
	<path class="st0" d="M34.352,14.417"/>
	<path class="st0" d="M22.077,14.047c-0.495-0.464-1.281-0.753-1.281-0.753C14.262,19.64,6.112,26.628,4.339,26.855
		c-0.674,0.05-1.097-0.111-1.264-0.472c-0.192-0.411-0.421-0.679,0.061-1.164L1.759,22.15c-1.314,1.324-2.121,3.866-1.38,5.477
		c0.641,1.396,2.028,2.201,3.754,2.201c0.141,0,0.283-0.003,0.427-0.013c3.509-0.261,14.896-11.083,18.304-14.393
		C22.863,15.424,22.571,14.511,22.077,14.047L22.077,14.047z"/>
	<path class="st0" d="M22.077,14.047"/>
</g>
</svg>
