<?xml version="1.0" encoding="utf-8"?>
<!-- Generator: Adobe Illustrator 16.0.0, SVG Export Plug-In . SVG Version: 6.00 Build 0)  -->
<!DOCTYPE svg PUBLIC "-//W3C//DTD SVG 1.1//EN" "http://www.w3.org/Graphics/SVG/1.1/DTD/svg11.dtd">
<svg version="1.1" id="Layer_1" xmlns="http://www.w3.org/2000/svg" xmlns:xlink="http://www.w3.org/1999/xlink" x="0px" y="0px"
	 width="127.4px" height="112.597px" viewBox="0 0 127.4 112.597" enable-background="new 0 0 127.4 112.597" xml:space="preserve">
<g>
	<path fill="#7DCDCD" d="M22.62,81.932c-3.305-5.349-5.724-13.552-5.724-22.313c0-26.281,21.373-47.656,47.641-47.656
		c5.414,0,10.597,0.953,15.437,2.617l-5.779-7.014C71.057,6.98,67.841,6.63,64.536,6.63c-29.212,0-52.981,23.766-52.981,52.989
		c0,9.754,2.697,18.875,6.482,25.021L22.62,81.932z"/>
	<path fill="#7DCDCD" d="M22.62,81.932"/>
	<path fill="#7DCDCD" d="M110.708,47.881c0.949,3.748,1.483,7.678,1.483,11.738c0,26.272-21.388,47.646-47.656,47.646
		c-11.156,0-21.401-3.864-29.511-10.325L30.3,99.952c9.231,7.87,21.178,12.645,34.236,12.645c29.21,0,52.976-23.764,52.976-52.978
		c0-1.94-0.13-3.824-0.336-5.699L110.708,47.881z"/>
	<path fill="#7DCDCD" d="M110.708,47.881"/>
	<path fill="#7DCDCD" d="M125.027,45.118c-0.666-3.148-13.696-21.529-13.696-21.529s11.078-10.697,11.809-11.973
		c0.729-1.263,3.527-4.115-0.04-7.045c-3.581-2.938-6.145-1.041-7.405,0.092c-1.277,1.147-10.794,9.657-10.794,9.657
		S85.596,0.263,82.418,0.015c-3.188-0.246-5.321,2.604-5.321,2.604l19.639,19.8l-9.616,11.35l-8.604-2.513l-4.752,2.928
		c0,0,9.438,4.117,11.3,6.481c1.873,2.37,4.336,10.249,4.336,10.249l4.527-2.383l-2.105-10.364l10.919-8.693l18.732,20.539
		C121.473,49.999,125.687,48.27,125.027,45.118L125.027,45.118z"/>
	<path fill="#7DCDCD" d="M125.027,45.118"/>
	<path fill="#7DCDCD" d="M80.936,43.793c-1.781-1.667-4.607-2.709-4.607-2.709C52.86,63.875,23.583,88.984,17.219,89.797
		c-2.42,0.179-3.942-0.396-4.543-1.694c-0.69-1.473-1.512-2.437,0.22-4.179L7.95,72.896C3.226,77.65,0.335,86.787,2.993,92.568
		c2.302,5.023,7.286,7.914,13.485,7.914c0.505,0,1.015-0.011,1.532-0.055c12.602-0.933,53.501-39.803,65.751-51.69
		C83.761,48.738,82.706,45.458,80.936,43.793L80.936,43.793z"/>
	<path fill="#7DCDCD" d="M80.936,43.793"/>
</g>
</svg>
