<?xml version="1.0" encoding="utf-8"?>
<!-- Generator: Adobe Illustrator 16.0.0, SVG Export Plug-In . SVG Version: 6.00 Build 0)  -->
<!DOCTYPE svg PUBLIC "-//W3C//DTD SVG 1.1//EN" "http://www.w3.org/Graphics/SVG/1.1/DTD/svg11.dtd">
<svg version="1.1" id="Layer_1" xmlns="http://www.w3.org/2000/svg" xmlns:xlink="http://www.w3.org/1999/xlink" x="0px" y="0px"
	 width="51.4px" height="39.6px" viewBox="0 0 51.4 39.6" enable-background="new 0 0 51.4 39.6" xml:space="preserve">
<g>
	<path fill="#7DCDCD" d="M11.523,15.664v21.241h35.402V15.664H11.523z M44.094,29.715l-1.155,1.065
		c-0.146-0.026-0.282-0.082-0.438-0.082c-1.271,0-2.297,0.951-2.297,2.121c0,0.146,0.058,0.267,0.088,0.404l-1.156,1.066H19.31
		l-1.153-1.066c0.029-0.136,0.088-0.262,0.088-0.404c0-1.173-1.03-2.118-2.298-2.118c-0.156,0-0.292,0.055-0.438,0.079l-1.156-1.066
		v-6.86l1.154-1.065c0.146,0.025,0.283,0.082,0.439,0.082c1.268,0,2.296-0.95,2.296-2.121c0-0.145-0.06-0.269-0.089-0.403
		l1.155-1.066h19.827l1.154,1.063c-0.032,0.138-0.09,0.262-0.09,0.406c0,1.171,1.028,2.119,2.299,2.119
		c0.155,0,0.291-0.056,0.438-0.08l1.155,1.067V29.715z M41.257,26.284c0,1.17-1.028,2.118-2.297,2.118
		c-1.271,0-2.299-0.948-2.299-2.118s1.027-2.12,2.299-2.12C40.228,24.164,41.257,25.115,41.257,26.284L41.257,26.284z
		 M34.665,26.284c0,2.707-2.379,4.901-5.311,4.901s-5.31-2.194-5.31-4.901c0-2.706,2.378-4.901,5.31-4.901
		S34.665,23.578,34.665,26.284L34.665,26.284z M21.785,26.284c0,1.17-1.028,2.118-2.296,2.118c-1.271,0-2.298-0.948-2.298-2.118
		s1.028-2.12,2.298-2.12C20.757,24.164,21.785,25.115,21.785,26.284L21.785,26.284z M36.096,13.5
		c0.043,0.13,0.029,0.262,0.046,0.393h-4.398c0.176-0.715,0.692-1.354,1.481-1.631C34.424,11.843,35.708,12.397,36.096,13.5
		L36.096,13.5z M12.376,13.893H9.752v4.941l-0.178,0.337l0.178,0.508v8.552l-5.23-14.906L37.927,1.603l4.312,12.29h-3l-1.6-4.564
		l-1.445-0.625c-0.129,0.073-0.238,0.169-0.387,0.221c-1.197,0.419-2.482-0.136-2.869-1.241c-0.048-0.135-0.033-0.274-0.051-0.411
		l-1.443-0.624l-18.707,6.564L12.376,13.893z M23.242,12.816c2.006-0.702,4.104-0.212,5.457,1.077H21.39
		C21.915,13.438,22.537,13.063,23.242,12.816L23.242,12.816z M23.242,12.816"/>
</g>
</svg>
