<?xml version="1.0" encoding="utf-8"?>
<!-- Generator: Adobe Illustrator 16.0.0, SVG Export Plug-In . SVG Version: 6.00 Build 0)  -->
<!DOCTYPE svg PUBLIC "-//W3C//DTD SVG 1.1//EN" "http://www.w3.org/Graphics/SVG/1.1/DTD/svg11.dtd">
<svg version="1.1" id="Layer_1" xmlns="http://www.w3.org/2000/svg" xmlns:xlink="http://www.w3.org/1999/xlink" x="0px" y="0px"
	 width="51.4px" height="39.6px" viewBox="0 0 51.4 39.6" style="enable-background:new 0 0 51.4 39.6;" xml:space="preserve">
<style type="text/css">
<![CDATA[
	.st0{fill:#FF0B5C;}
]]>
</style>
<g>
	<path class="st0" d="M25.434,1c-6.62,0-12.005,5.386-12.005,12.006c0,2.665,1.702,7.013,5.204,13.287
		c2.478,4.438,4.913,8.141,5.017,8.297l1.784,2.703l1.785-2.703c0.102-0.156,2.538-3.857,5.016-8.297
		c3.502-6.274,5.205-10.622,5.205-13.287C37.439,6.386,32.053,1,25.434,1L25.434,1z M25.434,19.148
		c-3.438,0-6.224-2.787-6.224-6.224c0-3.438,2.786-6.224,6.224-6.224s6.224,2.786,6.224,6.224
		C31.658,16.361,28.871,19.148,25.434,19.148L25.434,19.148z"/>
</g>
</svg>
