<?xml version="1.0" encoding="utf-8"?>
<!-- Generator: Adobe Illustrator 16.0.0, SVG Export Plug-In . SVG Version: 6.00 Build 0)  -->
<!DOCTYPE svg PUBLIC "-//W3C//DTD SVG 1.1//EN" "http://www.w3.org/Graphics/SVG/1.1/DTD/svg11.dtd">
<svg version="1.1" id="Layer_1" xmlns="http://www.w3.org/2000/svg" xmlns:xlink="http://www.w3.org/1999/xlink" x="0px" y="0px"
	 width="51.4px" height="39.6px" viewBox="0 0 51.4 39.6" enable-background="new 0 0 51.4 39.6" xml:space="preserve">
<g>
	<g>
		<path fill="#7DCDCD" d="M16.551,20.156c0,0,6.309-6.279,6.309-11.521c0-3.485-2.825-6.31-6.309-6.31s-6.308,2.825-6.308,6.31
			C10.243,14.174,16.551,20.156,16.551,20.156z M13.263,8.635c0-1.817,1.473-3.289,3.288-3.289s3.288,1.472,3.288,3.289
			c0,1.815-1.473,3.287-3.288,3.287S13.263,10.45,13.263,8.635z"/>
		<path fill="#7DCDCD" d="M39.866,10.858l-0.512,0.163l-2.741,0.244l-0.771,1.235l-0.56-0.179l-2.18-1.964l-0.318-1.021l-0.421-1.09
			l-1.371-1.231l-1.614-0.316l-0.039,0.74l1.583,1.544l0.775,0.913l-0.873,0.456l-0.71-0.21l-1.062-0.441L29.09,8.84l-1.396-0.574
			l-0.463,2.014l-1.404,0.319l0.14,1.124l1.828,0.353l0.317-1.796l1.51,0.225l0.701,0.411h1.13l0.77,1.544l2.046,2.076l-0.149,0.807
			l-1.65-0.21l-2.85,1.439l-2.052,2.46l-0.267,1.09h-0.738l-1.371-0.632l-1.333,0.632l0.331,1.407l0.581-0.672l1.02-0.029
			l-0.072,1.263l0.845,0.245l0.845,0.95l1.377-0.388l1.574,0.248l1.826,0.491l0.914,0.107l1.545,1.756l2.986,1.756l-1.93,3.691
			l-2.039,0.947l-0.773,2.108l-2.95,1.971l-0.314,1.137c7.538-1.815,13.148-8.586,13.148-16.688
			C42.773,16.88,41.702,13.589,39.866,10.858z"/>
		<path fill="#7DCDCD" d="M27.569,29.399l-1.251-2.32l1.148-2.395l-1.148-0.348l-1.291-1.293l-2.857-0.64l-0.949-1.986v1.18h-0.418
			l-1.814-2.458c-0.885,1.06-1.558,1.736-1.642,1.818l-0.777,0.774l-0.797-0.755c-0.204-0.197-3.86-3.701-5.667-7.959
			c-1.079,2.242-1.697,4.746-1.697,7.401c0,9.49,7.692,17.187,17.184,17.187c0.729,0,1.446-0.064,2.155-0.151l-0.18-2.08
			c0,0,0.789-3.093,0.789-3.196C28.358,32.071,27.569,29.399,27.569,29.399z"/>
		<path fill="#7DCDCD" d="M24.234,6.532L25.5,6.74l3.069-0.288l0.844-0.931l1.191-0.797l1.689,0.254l0.614-0.093
			c-2.223-1.045-4.696-1.65-7.314-1.65c-1.224,0-2.412,0.143-3.563,0.385c0.894,0.977,1.537,2.186,1.811,3.531L24.234,6.532z
			 M26.318,4.941l1.757-0.965l1.126,0.65l-1.632,1.242l-1.556,0.158L25.31,5.571L26.318,4.941z"/>
	</g>
</g>
</svg>
